<?xml version="1.0" encoding="UTF-8" standalone="no"?>
<svg
   viewBox="0 0 653 653"
   version="1.1"
   id="svg4"
   width="653"
   height="653"
   xmlns:xlink="http://www.w3.org/1999/xlink"
   xmlns="http://www.w3.org/2000/svg"
   xmlns:svg="http://www.w3.org/2000/svg">
  <defs
     id="defs8">
    <color-profile
       name="Agfa-:-Swop-Standard"
       xlink:href="../../../../WINDOWS/system32/spool/drivers/color/RSWOP.icm"
       id="color-profile1154" />
  </defs>
  <path
     d="m 401.25017,7.8612634 c -17,-6.123227 -34.7,6.2481896 -39.6,27.4920386 l -128,559.837878 c -4.9,21.24385 5,43.36244 22,49.48567 17,6.12323 34.7,-6.24819 39.6,-27.49204 l 128,-559.837881 c 4.9,-21.243845 -5,-43.362439 -22,-49.4856656 z m 80.6,150.0815366 c -12.5,15.62047 -12.5,40.98813 0,56.6086 l 89.3,111.71765 -89.4,111.71765 c -12.5,15.62048 -12.5,40.98813 0,56.60861 12.5,15.62048 32.8,15.62048 45.3,0 l 112,-139.95947 c 12.5,-15.62048 12.5,-40.98813 0,-56.60861 l -112,-139.95947 c -12.5,-15.62048 -32.8,-15.62048 -45.3,0 z m -306.7,0 c -12.5,-15.62048 -32.8,-15.62048 -45.3,0 l -112,139.95947 c -12.4999997,15.62048 -12.4999997,40.98813 0,56.60861 l 112,139.95947 c 12.5,15.62047 32.8,15.62047 45.3,0 12.5,-15.62048 12.5,-40.98813 0,-56.60861 l -89.4,-111.59269 89.4,-111.71765 c 12.5,-15.62047 12.5,-40.98813 0,-56.6086 z"
     id="path2"
     style="fill:#145f00;fill-opacity:1;stroke:#ffffff;stroke-width:5;stroke-dasharray:none;stroke-opacity:1" />
</svg>
