<svg xmlns="http://www.w3.org/2000/svg" width="653" height="653"><path d="M401.25 7.861c-17-6.123-34.7 6.248-39.6 27.492l-128 559.838c-4.9 21.244 5 43.363 22 49.486 17 6.123 34.7-6.248 39.6-27.492l128-559.838c4.9-21.244-5-43.363-22-49.486zm80.6 150.082c-12.5 15.62-12.5 40.988 0 56.608l89.3 111.718-89.4 111.718c-12.5 15.62-12.5 40.988 0 56.608 12.5 15.62 32.8 15.62 45.3 0l112-139.96c12.5-15.62 12.5-40.987 0-56.608l-112-139.96c-12.5-15.62-32.8-15.62-45.3 0zm-306.7 0c-12.5-15.62-32.8-15.62-45.3 0l-112 139.96c-12.5 15.62-12.5 40.987 0 56.608l112 139.96c12.5 15.62 32.8 15.62 45.3 0 12.5-15.621 12.5-40.989 0-56.61L85.75 326.27l89.4-111.718c12.5-15.62 12.5-40.988 0-56.608z" style="fill:#145f00;fill-opacity:1;stroke:#fff;stroke-width:5;stroke-dasharray:none;stroke-opacity:1"/></svg>