<?xml version="1.0" encoding="UTF-8" standalone="no"?>
<svg
   viewBox="0 0 640 512"
   version="1.1"
   id="svg4"
   sodipodi:docname="favicon.svg"
   inkscape:export-filename="favicon.webp"
   inkscape:export-xdpi="96"
   inkscape:export-ydpi="96"
   inkscape:version="1.2.2 (732a01da63, 2022-12-09)"
   xmlns:inkscape="http://www.inkscape.org/namespaces/inkscape"
   xmlns:sodipodi="http://sodipodi.sourceforge.net/DTD/sodipodi-0.dtd"
   xmlns="http://www.w3.org/2000/svg"
   xmlns:svg="http://www.w3.org/2000/svg">
  <sodipodi:namedview
     id="namedview5"
     pagecolor="#ffffff"
     bordercolor="#666666"
     borderopacity="1.0"
     inkscape:showpageshadow="2"
     inkscape:pageopacity="0.0"
     inkscape:pagecheckerboard="0"
     inkscape:deskcolor="#d1d1d1"
     showgrid="false"
     inkscape:zoom="2.0058594"
     inkscape:cx="320.06232"
     inkscape:cy="255.75073"
     inkscape:window-width="3840"
     inkscape:window-height="2054"
     inkscape:window-x="-11"
     inkscape:window-y="-11"
     inkscape:window-maximized="1"
     inkscape:current-layer="svg4" />
  <defs
     id="defs8" />
  <path
     d="m 392.775,-62.432796 c -17,-6.123227 -34.7,6.24819 -39.6,27.492039 l -128,559.837887 c -4.9,21.24385 5,43.36244 22,49.48567 17,6.12323 34.7,-6.24819 39.6,-27.49204 l 128,-559.83789 c 4.9,-21.243845 -5,-43.362439 -22,-49.485666 z m 80.6,150.081546 c -12.5,15.62047 -12.5,40.98813 0,56.6086 l 89.3,111.71765 -89.4,111.71765 c -12.5,15.62048 -12.5,40.98813 0,56.60861 12.5,15.62048 32.8,15.62048 45.3,0 l 112,-139.95947 c 12.5,-15.62048 12.5,-40.98813 0,-56.60861 l -112,-139.95947 c -12.5,-15.62048 -32.8,-15.62048 -45.3,0 z m -306.7,0 c -12.5,-15.62048 -32.8,-15.62048 -45.3,0 l -112,139.95947 c -12.5,15.62048 -12.5,40.98813 0,56.60861 l 112,139.95947 c 12.5,15.62047 32.8,15.62047 45.3,0 12.5,-15.62048 12.5,-40.98813 0,-56.60861 l -89.4,-111.59269 89.4,-111.71765 c 12.5,-15.62047 12.5,-40.98813 0,-56.6086 z"
     id="path2"
     style="fill:#145f00;fill-opacity:1;stroke-width:1.11787" />
</svg>
